# xmcd
#
# Track frame offsets:
#	150
#	19107
#	35485
#	54940
#	71330
#	83020
#	107015
#	116132
#	127725
#	135335
#	149977
#	158460
#	177127
#	201772
#	219347
#	235932
#	258912
#	265652
#
# Disc length: 4352 seconds
#
# Revision: 0
# Processed by: cddbd v1.5.1PL0 Copyright (c) Steve Scherf et al.
# Submitted via: audiograbber 1.83.01
#
DISCID=ee10fe12
DTITLE=Erik Hokkanen and Lumisudet - Kaustinen, Texas
DYEAR=1995
DGENRE=Country
TTITLE0=Kaustinen, Texas
TTITLE1=Viinijärvi Valssi
TTITLE2=Coyote Thunder
TTITLE3=Silver Bells
TTITLE4=Grand Valley Waltz
TTITLE5=Funny Farm
TTITLE6=La Chiccarronnerra
TTITLE7=El Amor De Panchita
TTITLE8=Mosquito's Blues
TTITLE9=Don't Try To Tame Me
TTITLE10=Wild Fiddler's Rag
TTITLE11=Hill Country Waltz
TTITLE12=Snow Wolf Swing
TTITLE13=You're The Sky
TTITLE14=Everything's All Right
TTITLE15=Dragon's Blues
TTITLE16=Jenny Lind Polka
TTITLE17=Live Fiddle Medley
EXTD=
EXTT0=
EXTT1=
EXTT2=
EXTT3=
EXTT4=
EXTT5=
EXTT6=
EXTT7=
EXTT8=
EXTT9=
EXTT10=
EXTT11=
EXTT12=
EXTT13=
EXTT14=
EXTT15=
EXTT16=
EXTT17=
PLAYORDER=
